<?xml version="1.0" standalone="no"?>
<!DOCTYPE svg PUBLIC "-//W3C//DTD SVG 20010904//EN"
 "http://www.w3.org/TR/2001/REC-SVG-20010904/DTD/svg10.dtd">
<svg version="1.0" xmlns="http://www.w3.org/2000/svg"
 width="1209.000000pt" height="360.000000pt" viewBox="0 0 1209.000000 360.000000"
 preserveAspectRatio="xMidYMid meet">

<g transform="translate(0.000000,360.000000) scale(0.100000,-0.100000)"
fill="#000000" stroke="none">
<path d="M349 3484 c-102 -31 -196 -122 -235 -227 -18 -51 -19 -90 -19 -1447
l0 -1395 24 -60 c33 -82 124 -173 206 -206 l60 -24 5620 -3 c4007 -2 5638 0
5684 8 124 21 223 95 278 208 l28 57 0 1415 0 1415 -27 57 c-37 79 -98 142
-177 181 l-66 32 -5665 2 c-4886 1 -5671 0 -5711 -13z m2186 -437 c12 -45 -15
-161 -56 -245 -49 -100 -124 -178 -212 -222 -63 -30 -169 -56 -187 -45 -15 9
-12 95 6 156 41 141 139 259 266 322 64 32 126 53 165 56 7 1 15 -9 18 -22z
m3255 -327 l0 -310 -55 0 -55 0 0 310 0 310 55 0 55 0 0 -310z m740 190 l0
-119 36 24 c95 64 216 28 259 -77 24 -59 23 -163 -3 -220 -48 -109 -189 -151
-272 -81 l-29 24 -7 -25 c-5 -23 -11 -26 -50 -26 l-44 0 0 310 0 310 55 0 55
0 0 -120z m548 -187 l-3 -308 -52 -3 -53 -3 0 310 0 311 55 0 55 0 -2 -307z
m2582 186 l0 -120 37 28 c47 36 126 39 170 7 59 -45 68 -73 71 -251 l4 -163
-56 0 -56 0 0 123 c0 140 -11 191 -45 213 -32 21 -78 10 -105 -23 -18 -23 -20
-41 -20 -169 l0 -144 -55 0 -55 0 0 310 0 310 55 0 55 0 0 -121z m-4137 83
c37 -32 6 -94 -48 -94 -39 0 -56 20 -53 61 5 56 54 73 101 33z m-1236 -282
c51 -157 93 -288 93 -292 0 -5 -26 -8 -58 -8 l-59 0 -25 83 -26 82 -90 3 -91
3 -26 -86 -26 -85 -55 0 c-33 0 -54 4 -54 11 0 7 36 125 81 263 44 138 85 266
91 284 l10 33 71 -3 71 -3 93 -285z m5053 180 l0 -49 48 -3 47 -3 0 -40 0 -40
-47 -3 -48 -3 0 -113 c0 -124 5 -136 57 -136 32 0 33 -1 33 -44 0 -44 0 -44
-40 -51 -63 -11 -123 13 -146 57 -10 19 -14 65 -14 158 l0 130 -30 0 c-29 0
-30 2 -30 45 0 43 1 45 30 45 28 0 30 2 30 39 0 39 1 40 48 54 26 7 50 12 55
10 4 -2 7 -26 7 -53z m-4139 -67 c60 -34 73 -78 78 -255 l3 -158 -51 0 c-44 0
-51 3 -51 20 0 25 -4 25 -41 -2 -21 -16 -44 -22 -83 -22 -64 -1 -101 21 -129
77 -48 95 35 192 175 204 61 6 69 15 48 53 -19 35 -90 36 -174 4 -7 -3 -17 10
-23 31 -10 31 -9 37 7 45 62 33 188 35 241 3z m1000 0 c55 -32 66 -69 73 -250
l5 -163 -49 0 c-43 0 -50 3 -50 20 0 23 -13 26 -29 6 -17 -20 -95 -39 -130
-31 -68 15 -120 90 -106 155 15 68 89 119 187 127 47 5 58 9 58 24 0 56 -90
74 -181 35 -11 -5 -18 2 -26 29 -10 31 -9 37 7 45 62 33 188 35 241 3z m1276
12 c76 -32 112 -93 113 -187 l0 -58 -140 0 c-82 0 -140 -4 -140 -10 0 -68 106
-110 207 -81 36 11 38 9 47 -36 7 -29 5 -32 -26 -41 -197 -61 -352 39 -335
216 8 98 57 170 134 197 51 19 96 18 140 0z m714 4 c109 -37 164 -146 138
-270 -34 -157 -238 -220 -363 -110 -63 55 -81 188 -36 275 28 55 57 80 116
101 48 17 100 19 145 4z m569 -8 c19 -10 45 -36 57 -57 21 -36 23 -52 23 -201
l0 -163 -55 0 -55 0 0 149 c0 130 -2 152 -19 172 -27 34 -86 32 -117 -5 -23
-26 -24 -34 -24 -172 l0 -144 -55 0 -55 0 -2 190 c-1 105 -2 200 -2 213 -1 19
5 22 47 25 45 3 47 2 47 -22 0 -31 11 -33 35 -6 36 40 121 50 175 21z m1586 0
c67 -30 109 -111 102 -196 l-3 -40 -137 -3 c-147 -3 -153 -5 -128 -53 24 -43
118 -62 198 -40 30 9 32 8 38 -17 3 -15 7 -32 9 -39 6 -18 -63 -37 -140 -37
-135 -2 -215 66 -223 188 -5 83 12 140 56 188 62 65 150 84 228 49z m-5757
-143 c25 -81 48 -144 52 -140 3 4 25 71 49 150 l43 142 60 0 c52 0 58 -2 52
-17 -3 -10 -41 -107 -82 -216 l-76 -198 -55 3 -54 3 -48 130 c-26 72 -62 167
-79 213 l-31 83 62 -3 62 -3 45 -147z m941 -63 l0 -215 -55 0 -55 0 0 215 0
215 55 0 55 0 0 -215z m-2861 -138 c88 -25 169 -75 235 -147 l49 -52 -34 -26
c-66 -50 -131 -128 -164 -197 -115 -237 -28 -519 201 -650 27 -16 50 -29 52
-31 6 -4 -52 -144 -87 -210 -97 -180 -224 -328 -316 -371 -50 -22 -66 -25
-134 -20 -54 3 -97 14 -149 35 -146 62 -254 63 -405 2 -41 -16 -98 -35 -126
-41 -105 -22 -206 29 -313 159 -156 191 -259 405 -309 645 -30 141 -30 349 -1
458 57 213 202 376 390 441 51 17 89 22 157 22 83 0 100 -4 213 -47 70 -27
140 -47 162 -47 21 0 93 20 160 45 181 68 270 75 419 32z m5104 -506 c37 -12
67 -26 67 -30 0 -11 -41 -145 -45 -150 -2 -1 -32 7 -67 20 -46 16 -87 22 -153
23 -78 1 -96 -2 -132 -23 -44 -26 -83 -86 -83 -129 0 -68 54 -127 160 -175
227 -102 299 -154 341 -249 33 -74 33 -202 1 -273 -46 -101 -156 -181 -282
-205 -122 -23 -302 -5 -389 39 -46 24 -47 29 -22 116 19 68 16 67 114 31 168
-64 341 -35 392 64 20 38 19 113 -2 157 -18 39 -108 103 -171 124 -71 22 -193
92 -238 136 -25 24 -57 69 -71 99 -22 49 -25 66 -21 138 6 99 26 143 97 209
87 81 175 109 331 103 70 -3 128 -11 173 -25z m-3159 -573 c104 -321 191 -589
193 -595 4 -10 -20 -13 -101 -13 l-105 0 -11 38 c-5 20 -30 98 -54 172 l-43
135 -191 3 -191 2 -30 -97 c-16 -54 -40 -133 -53 -175 l-23 -78 -102 0 -101 0
42 133 c24 72 110 340 191 595 l149 462 121 0 121 0 188 -582z m3696 357 l0
-105 105 0 105 0 0 -75 0 -75 -105 0 -105 0 0 -235 c0 -310 7 -329 129 -331
l66 -1 3 -71 3 -71 -43 -12 c-24 -6 -77 -9 -118 -7 -119 7 -179 49 -214 152
-13 38 -16 95 -16 311 l0 265 -65 0 -65 0 0 75 0 75 65 0 65 0 0 79 0 79 73
22 c39 11 77 23 82 25 32 12 35 5 35 -100z m-2721 -127 c143 -72 225 -254 206
-453 -14 -138 -59 -239 -140 -314 -65 -60 -124 -84 -221 -89 -102 -5 -169 15
-225 67 l-39 38 0 -219 0 -218 -100 0 -100 0 0 605 0 605 85 0 85 0 0 -34 c0
-18 3 -47 6 -63 l6 -30 41 44 c47 51 81 71 152 90 79 20 169 9 244 -29z m969
12 c93 -41 177 -148 208 -265 18 -65 18 -236 0 -302 -33 -123 -111 -224 -211
-273 -43 -22 -64 -25 -155 -25 -116 0 -146 10 -207 68 l-33 31 0 -217 0 -217
-100 0 -100 0 -2 575 c-1 316 -2 587 -2 603 l-1 27 85 0 85 0 3 -64 3 -64 44
46 c48 51 106 84 168 97 61 13 161 4 215 -20z m2596 15 c85 -18 138 -48 200
-114 90 -97 129 -240 107 -394 -33 -235 -192 -377 -422 -377 -224 0 -375 134
-411 364 -38 249 97 474 314 521 83 18 128 18 212 0z m934 -82 l3 -93 -56 0
c-95 0 -148 -34 -188 -120 -20 -41 -22 -66 -25 -307 l-4 -263 -94 0 -94 0 -2
410 c-1 226 -2 418 -2 428 -1 15 10 17 78 20 57 2 82 -1 87 -10 5 -7 9 -44 9
-83 1 -67 1 -69 14 -39 40 91 138 155 231 151 l40 -2 3 -92z m658 57 c35 -17
77 -47 94 -68 67 -81 104 -202 98 -322 l-3 -65 -288 -3 -289 -2 7 -43 c28
-167 181 -240 400 -191 104 23 98 25 111 -31 19 -80 19 -82 -33 -99 -134 -43
-309 -46 -414 -6 -167 62 -253 201 -253 405 0 149 36 252 122 347 105 116 301
151 448 78z"/>
<path d="M6583 2748 c-46 -22 -70 -140 -41 -203 24 -52 96 -70 140 -35 37 28
51 72 46 137 -4 48 -10 61 -37 85 -33 29 -69 35 -108 16z"/>
<path d="M4110 2878 c0 -9 -13 -59 -30 -113 -16 -54 -30 -99 -30 -101 0 -2 32
-4 70 -4 81 0 78 -14 30 135 -27 85 -40 112 -40 83z"/>
<path d="M5080 2607 c-64 -22 -75 -106 -16 -121 56 -14 106 31 106 96 0 35 -2
38 -27 37 -16 0 -44 -5 -63 -12z"/>
<path d="M6083 2609 c-90 -26 -69 -146 22 -123 36 9 57 39 62 89 6 44 5 45
-23 44 -16 0 -44 -5 -61 -10z"/>
<path d="M7346 2748 c-14 -13 -28 -35 -32 -50 l-6 -28 92 0 92 0 -7 28 c-10
42 -44 72 -81 72 -20 0 -43 -9 -58 -22z"/>
<path d="M8074 2751 c-79 -48 -70 -223 13 -257 28 -12 38 -12 66 0 86 36 90
218 6 261 -36 19 -48 19 -85 -4z"/>
<path d="M10199 2741 c-16 -16 -29 -39 -29 -50 0 -20 6 -21 85 -21 84 0 85 0
85 25 0 14 -11 37 -25 50 -34 35 -78 33 -116 -4z"/>
<path d="M4275 1733 c-10 -43 -42 -154 -71 -248 -30 -93 -54 -173 -54 -177 0
-5 69 -8 154 -8 l155 0 -53 158 c-29 86 -63 198 -76 247 -13 50 -26 93 -30 98
-3 4 -15 -28 -25 -70z"/>
<path d="M5292 1499 c-51 -26 -95 -76 -111 -128 -6 -21 -11 -92 -11 -158 0
-108 2 -124 26 -171 62 -124 224 -147 320 -47 57 59 79 126 78 240 -2 139 -42
223 -127 264 -56 27 -120 27 -175 0z"/>
<path d="M6285 1502 c-22 -11 -52 -32 -67 -48 -48 -52 -58 -91 -58 -237 0
-121 2 -138 23 -178 13 -24 43 -57 66 -74 37 -26 51 -30 111 -30 60 0 74 4
112 30 26 19 54 52 73 85 26 48 30 67 33 155 2 55 -1 118 -7 140 -14 55 -56
116 -98 145 -48 33 -133 38 -188 12z"/>
<path d="M8939 1502 c-139 -89 -160 -388 -35 -517 50 -52 104 -71 172 -60 40
6 57 15 95 53 64 65 89 136 89 252 0 103 -21 173 -72 234 -60 73 -167 89 -249
38z"/>
<path d="M10469 1512 c-46 -30 -91 -99 -102 -159 l-6 -33 194 0 195 0 0 38 c0
45 -29 109 -61 139 -57 52 -151 59 -220 15z"/>
</g>
</svg>
