<?xml version="1.0" standalone="no"?>
<!DOCTYPE svg PUBLIC "-//W3C//DTD SVG 20010904//EN"
 "http://www.w3.org/TR/2001/REC-SVG-20010904/DTD/svg10.dtd">
<svg version="1.0" xmlns="http://www.w3.org/2000/svg"
 width="1209.000000pt" height="356.000000pt" viewBox="0 0 1209.000000 356.000000"
 preserveAspectRatio="xMidYMid meet">

<g transform="translate(0.000000,356.000000) scale(0.100000,-0.100000)"
fill="#000000" stroke="none">
<path d="M374 3466 c-98 -24 -196 -102 -243 -194 -41 -81 -42 -111 -39 -1527
l3 -1360 32 -67 c39 -82 100 -145 179 -184 l59 -29 5680 0 5680 0 66 32 c79
39 140 102 177 181 l27 57 0 1415 0 1415 -29 59 c-39 79 -102 140 -184 179
l-67 32 -5645 2 c-4473 1 -5656 -1 -5696 -11z m3721 -545 c60 -27 70 -43 41
-70 l-24 -22 -41 20 c-78 40 -171 23 -228 -42 -58 -66 -67 -145 -27 -225 71
-143 287 -139 329 6 6 21 4 22 -69 22 l-76 0 0 35 0 35 116 0 117 0 -6 -58
c-6 -69 -34 -129 -77 -165 -34 -29 -116 -57 -165 -57 -100 0 -205 70 -245 161
-33 78 -27 187 15 254 72 117 215 161 340 106z m2452 -7 c146 -70 191 -273 90
-406 -76 -100 -223 -133 -333 -76 -59 31 -99 74 -127 137 -16 36 -18 60 -15
122 5 93 38 155 105 203 85 60 183 67 280 20z m-1907 -9 l0 -35 -120 0 -120 0
0 -80 0 -80 105 0 105 0 0 -40 0 -40 -105 0 -105 0 0 -75 0 -75 125 0 125 0 0
-35 0 -35 -160 0 -160 0 0 265 0 265 155 0 155 0 0 -35z m460 0 l0 -35 -80 0
-80 0 0 -230 0 -230 -35 0 -35 0 0 230 0 230 -80 0 -80 0 0 35 0 35 195 0 195
0 0 -35z m340 -230 l0 -265 -35 0 -35 0 0 265 0 265 35 0 35 0 0 -265z m490
230 l0 -35 -80 0 -80 0 0 -230 0 -230 -40 0 -40 0 0 230 0 230 -80 0 -80 0 0
35 0 35 200 0 200 0 0 -35z m1060 -158 l115 -192 3 193 2 192 35 0 35 0 0
-266 0 -265 -37 3 c-36 3 -38 6 -152 193 l-116 190 -3 -192 -2 -193 -35 0 -35
0 0 265 0 265 38 0 37 -1 115 -192z m-5865 150 c22 -11 321 -180 665 -375 344
-195 729 -413 855 -484 127 -72 245 -142 264 -156 70 -52 75 -136 13 -196 -16
-15 -132 -86 -258 -157 l-228 -130 -188 188 -188 188 -555 -555 c-530 -530
-555 -554 -572 -537 -17 17 -18 80 -21 1086 l-2 1068 23 34 c40 59 107 68 192
26z m3305 -872 c72 -19 166 -67 215 -109 l40 -35 -57 -57 -57 -57 -53 36 c-81
56 -129 70 -238 70 -74 0 -107 -4 -150 -21 -173 -68 -280 -238 -267 -426 10
-165 97 -294 247 -365 50 -24 66 -26 175 -26 110 0 124 2 175 27 109 54 177
138 196 241 l6 37 -191 0 -191 0 0 85 0 85 273 -2 272 -3 3 -93 c5 -170 -45
-299 -155 -402 -118 -111 -259 -159 -433 -147 -238 16 -453 178 -530 400 -27
78 -37 215 -21 299 42 217 221 404 441 462 72 19 230 20 300 1z m3130 -585 l0
-561 -82 3 -83 3 -3 558 -2 557 85 0 85 0 0 -560z m1712 528 c73 -34 143 -104
176 -176 21 -47 26 -72 26 -138 0 -72 -4 -89 -32 -147 -37 -76 -91 -127 -172
-166 -51 -24 -66 -26 -222 -29 l-168 -4 0 -214 0 -214 -85 0 -85 0 0 561 0
560 253 -3 c249 -3 253 -3 309 -30z m466 -525 l-3 -558 -85 0 -85 0 -3 558 -2
557 90 0 90 0 -2 -557z m537 161 c79 -24 138 -73 174 -145 l31 -62 0 -259 0
-258 -80 0 -80 0 0 46 0 47 -21 -27 c-11 -14 -41 -38 -67 -53 -40 -24 -58 -28
-127 -28 -120 0 -210 48 -255 135 -64 126 -7 268 135 331 73 33 200 38 279 11
l58 -20 -6 32 c-22 109 -204 154 -292 71 l-36 -34 -74 31 -74 31 16 26 c82
128 246 177 419 125z m-4843 -16 c79 -37 142 -98 181 -177 30 -61 32 -72 32
-171 0 -95 -3 -111 -28 -162 -102 -207 -364 -281 -559 -156 -198 125 -230 415
-65 586 79 82 161 113 287 109 78 -2 105 -8 152 -29z m830 0 c76 -35 143 -100
181 -173 26 -52 31 -73 35 -155 3 -79 0 -104 -17 -151 -44 -117 -126 -193
-244 -230 -183 -57 -386 30 -465 199 -24 50 -27 69 -27 162 0 93 3 112 26 161
47 99 129 172 232 205 26 8 77 13 132 11 73 -2 101 -7 147 -29z m768 11 c25
-11 55 -30 68 -41 l22 -21 0 31 0 32 81 0 80 0 -3 -407 c-4 -455 -4 -452 -76
-548 -27 -36 -56 -60 -106 -85 -65 -33 -74 -35 -170 -35 -94 0 -106 2 -168 33
-42 21 -82 50 -108 80 -42 47 -75 100 -68 108 3 2 35 16 73 32 l69 28 31 -40
c60 -79 139 -109 223 -86 88 23 142 106 142 217 l0 43 -40 -29 c-83 -60 -210
-67 -311 -17 -75 38 -152 116 -186 190 -24 53 -28 73 -28 156 0 83 4 103 27
153 47 100 112 165 206 203 75 31 178 32 242 3z m1094 1 c71 -27 149 -104 187
-184 16 -34 29 -66 29 -72 0 -7 -112 -58 -250 -115 -137 -57 -250 -107 -250
-111 0 -4 17 -25 38 -46 79 -79 204 -78 288 2 l44 43 66 -45 66 -44 -52 -53
c-32 -32 -77 -65 -114 -82 -53 -24 -73 -28 -156 -28 -86 0 -101 3 -162 32
-294 139 -288 576 10 699 75 31 179 32 256 4z m2644 -227 c51 -126 96 -234
101 -241 5 -8 42 75 102 228 l94 240 93 0 c50 0 92 -3 92 -7 0 -11 -442 -1026
-453 -1040 -9 -12 -177 -20 -177 -9 0 3 36 85 81 183 44 98 81 185 81 193 1 8
-56 146 -127 305 -70 160 -136 309 -146 333 l-18 42 92 0 93 0 92 -227z"/>
<path d="M6342 2854 c-63 -32 -112 -111 -112 -179 0 -66 51 -150 111 -181 33
-17 116 -19 156 -3 69 26 116 97 117 179 1 67 -25 121 -78 164 -30 25 -47 31
-99 33 -43 3 -72 -1 -95 -13z"/>
<path d="M8880 1656 l0 -186 139 0 c150 0 180 6 224 48 87 82 79 210 -16 286
l-39 31 -154 3 -154 3 0 -185z"/>
<path d="M10062 1200 c-79 -36 -90 -130 -18 -167 39 -21 122 -21 161 0 41 21
81 65 99 109 9 21 16 39 16 42 0 2 -18 11 -40 20 -57 23 -164 21 -218 -4z"/>
<path d="M5205 1459 c-83 -24 -145 -116 -145 -215 0 -131 88 -227 208 -227
118 0 199 81 210 209 12 160 -124 277 -273 233z"/>
<path d="M6037 1460 c-49 -15 -98 -61 -123 -114 -73 -156 25 -329 186 -329 82
0 143 37 183 113 26 50 28 62 24 127 -5 85 -33 137 -96 179 -43 28 -126 40
-174 24z"/>
<path d="M6842 1444 c-92 -46 -137 -149 -113 -258 13 -60 63 -126 115 -153 47
-24 135 -21 180 6 150 93 139 341 -18 412 -56 26 -103 24 -164 -7z"/>
<path d="M7921 1448 c-28 -14 -54 -37 -72 -66 -27 -43 -47 -107 -36 -118 4 -4
315 120 325 131 10 9 -21 44 -52 59 -47 22 -113 20 -165 -6z"/>
</g>
</svg>
